<svg xmlns="http://www.w3.org/2000/svg" xmlns:xlink="http://www.w3.org/1999/xlink" contentStyleType="text/css" data-diagram-type="ACTIVITY" height="1226px" preserveAspectRatio="none" style="width:611px;height:1226px;background:#FFFFFF;" version="1.1" viewBox="0 0 611 1226" width="611px" zoomAndPan="magnify"><defs/><g><ellipse cx="147.11" cy="16" fill="#222222" rx="10" ry="10" style="stroke:#222222;stroke-width:1;"/><rect fill="#F1F1F1" height="33.9688" rx="12.5" ry="12.5" style="stroke:#181818;stroke-width:0.5;" width="92.0005" x="101.11" y="67"/><text fill="#000000" font-family="sans-serif" font-size="12" lengthAdjust="spacing" textLength="72.0005" x="111.11" y="88.1387">&#25509;&#25910;&#30331;&#24405;&#35831;&#27714;</text><rect fill="#F1F1F1" height="33.9688" rx="12.5" ry="12.5" style="stroke:#181818;stroke-width:0.5;" width="128.0008" x="83.11" y="141.97"/><text fill="#000000" font-family="sans-serif" font-size="12" lengthAdjust="spacing" textLength="108.0008" x="93.11" y="163.1087">&#26816;&#26597;&#36134;&#21495;&#26159;&#21542;&#34987;&#38145;&#23450;</text><g class="entity" data-qualified-name=".7" id="ent0008"><polygon fill="#F1F1F1" points="147.11,216.93,159.11,228.93,147.11,240.93,135.11,228.93,147.11,216.93" style="stroke:#181818;stroke-width:0.5;"/></g><rect fill="#F1F1F1" height="33.9688" rx="12.5" ry="12.5" style="stroke:#181818;stroke-width:0.5;" width="208.2221" x="7" y="348.9"/><text fill="#000000" font-family="sans-serif" font-size="12" lengthAdjust="spacing" textLength="188.2221" x="17" y="370.0387">&#36820;&#22238;&#65306;&#36134;&#21495;&#24050;&#38145;&#23450;&#65292;&#35831;X&#20998;&#38047;&#21518;&#37325;&#35797;</text><ellipse cx="268.11" cy="1209.59" fill="none" rx="11" ry="11" style="stroke:#222222;stroke-width:1.5;"/><ellipse cx="268.11" cy="1209.59" fill="#222222" rx="6" ry="6" style="stroke:#222222;stroke-width:1;"/><rect fill="#F1F1F1" height="33.9688" rx="12.5" ry="12.5" style="stroke:#181818;stroke-width:0.5;" width="104.0006" x="169.11" y="294.93"/><text fill="#000000" font-family="sans-serif" font-size="12" lengthAdjust="spacing" textLength="84.0006" x="179.11" y="316.0687">&#25163;&#26426;&#21495;&#26684;&#24335;&#26657;&#39564;</text><g class="entity" data-qualified-name=".16" id="ent0017"><polygon fill="#F1F1F1" points="231.11,402.87,243.11,414.87,231.11,426.87,219.11,414.87,231.11,402.87" style="stroke:#181818;stroke-width:0.5;"/></g><rect fill="#F1F1F1" height="33.9688" rx="12.5" ry="12.5" style="stroke:#181818;stroke-width:0.5;" width="164.0011" x="127.11" y="534.84"/><text fill="#000000" font-family="sans-serif" font-size="12" lengthAdjust="spacing" textLength="144.0011" x="137.11" y="555.9787">&#36820;&#22238;&#65306;&#35831;&#36755;&#20837;&#27491;&#30830;&#30340;&#25163;&#26426;&#21495;</text><rect fill="#F1F1F1" height="33.9688" rx="12.5" ry="12.5" style="stroke:#181818;stroke-width:0.5;" width="116.0007" x="246.11" y="480.87"/><text fill="#000000" font-family="sans-serif" font-size="12" lengthAdjust="spacing" textLength="96.0007" x="256.11" y="502.0087">&#26597;&#35810;&#36134;&#21495;&#26159;&#21542;&#23384;&#22312;</text><g class="entity" data-qualified-name=".24" id="ent0025"><polygon fill="#F1F1F1" points="307.11,588.81,319.11,600.81,307.11,612.81,295.11,600.81,307.11,588.81" style="stroke:#181818;stroke-width:0.5;"/></g><rect fill="#F1F1F1" height="33.9688" rx="12.5" ry="12.5" style="stroke:#181818;stroke-width:0.5;" width="140.0009" x="225.11" y="720.78"/><text fill="#000000" font-family="sans-serif" font-size="12" lengthAdjust="spacing" textLength="120.0009" x="235.11" y="741.9187">&#36820;&#22238;&#65306;&#36134;&#21495;&#25110;&#23494;&#30721;&#38169;&#35823;</text><rect fill="#F1F1F1" height="33.9688" rx="12.5" ry="12.5" style="stroke:#181818;stroke-width:0.5;" width="68.0004" x="342.11" y="666.81"/><text fill="#000000" font-family="sans-serif" font-size="12" lengthAdjust="spacing" textLength="48.0004" x="352.11" y="687.9487">&#26657;&#39564;&#23494;&#30721;</text><g class="entity" data-qualified-name=".32" id="ent0033"><polygon fill="#F1F1F1" points="404.11,774.75,416.11,786.75,404.11,798.75,392.11,786.75,404.11,774.75" style="stroke:#181818;stroke-width:0.5;"/></g><rect fill="#F1F1F1" height="33.9688" rx="12.5" ry="12.5" style="stroke:#181818;stroke-width:0.5;" width="92.0005" x="358.11" y="852.75"/><text fill="#000000" font-family="sans-serif" font-size="12" lengthAdjust="spacing" textLength="72.0005" x="368.11" y="873.8887">&#32047;&#35745;&#38169;&#35823;&#27425;&#25968;</text><g class="entity" data-qualified-name=".37" id="ent0038"><polygon fill="#F1F1F1" points="404.11,932.7,416.11,944.7,404.11,956.7,392.11,944.7,404.11,932.7" style="stroke:#181818;stroke-width:0.5;"/></g><rect fill="#F1F1F1" height="33.9688" rx="12.5" ry="12.5" style="stroke:#181818;stroke-width:0.5;" width="107.2701" x="274.48" y="1015.68"/><text fill="#000000" font-family="sans-serif" font-size="12" lengthAdjust="spacing" textLength="87.2701" x="284.48" y="1036.8187">&#38145;&#23450;&#36134;&#21495;30&#20998;&#38047;</text><rect fill="#F1F1F1" height="33.9688" rx="12.5" ry="12.5" style="stroke:#181818;stroke-width:0.5;" width="116.0007" x="270.11" y="1123.62"/><text fill="#000000" font-family="sans-serif" font-size="12" lengthAdjust="spacing" textLength="96.0007" x="280.11" y="1144.7587">&#36820;&#22238;&#65306;&#36134;&#21495;&#24050;&#38145;&#23450;</text><rect fill="#F1F1F1" height="33.9688" rx="12.5" ry="12.5" style="stroke:#181818;stroke-width:0.5;" width="184.2219" x="324" y="1069.65"/><text fill="#000000" font-family="sans-serif" font-size="12" lengthAdjust="spacing" textLength="164.2219" x="334" y="1090.7887">&#36820;&#22238;&#65306;&#23494;&#30721;&#38169;&#35823;&#65292;&#36824;&#21097;X&#27425;&#26426;&#20250;</text><rect fill="#F1F1F1" height="33.9688" rx="12.5" ry="12.5" style="stroke:#181818;stroke-width:0.5;" width="92.0005" x="492.11" y="852.75"/><text fill="#000000" font-family="sans-serif" font-size="12" lengthAdjust="spacing" textLength="72.0005" x="502.11" y="873.8887">&#28165;&#38500;&#38169;&#35823;&#27425;&#25968;</text><rect fill="#F1F1F1" height="33.9688" rx="12.5" ry="12.5" style="stroke:#181818;stroke-width:0.5;" width="92.0005" x="508.11" y="927.72"/><text fill="#000000" font-family="sans-serif" font-size="12" lengthAdjust="spacing" textLength="72.0005" x="518.11" y="948.8587">&#29983;&#25104;&#30331;&#24405;&#20973;&#35777;</text><rect fill="#F1F1F1" height="33.9688" rx="12.5" ry="12.5" style="stroke:#181818;stroke-width:0.5;" width="92.0005" x="513.11" y="1069.65"/><text fill="#000000" font-family="sans-serif" font-size="12" lengthAdjust="spacing" textLength="72.0005" x="523.11" y="1090.7887">&#36820;&#22238;&#30331;&#24405;&#25104;&#21151;</text><!--link start to ??????--><g class="link" data-entity-1="ent0002" data-entity-2="ent0003" data-link-type="dependency" data-source-line="1" id="lnk4"><path d="M147.11,26.45 C147.11,36.93 147.11,48.01 147.11,60.66" fill="none" id="start-to-&#25509;&#25910;&#30331;&#24405;&#35831;&#27714;" style="stroke:#181818;stroke-width:1;"/><polygon fill="#181818" points="147.11,66.66,151.11,57.66,147.11,61.66,143.11,57.66,147.11,66.66" style="stroke:#181818;stroke-width:1;"/></g><!--link ?????? to ?????????--><g class="link" data-entity-1="ent0003" data-entity-2="ent0005" data-link-type="dependency" data-source-line="2" id="lnk6"><path d="M147.11,101.17 C147.11,113.18 147.11,123.49 147.11,135.55" fill="none" id="&#25509;&#25910;&#30331;&#24405;&#35831;&#27714;-to-&#26816;&#26597;&#36134;&#21495;&#26159;&#21542;&#34987;&#38145;&#23450;" style="stroke:#181818;stroke-width:1;"/><polygon fill="#181818" points="147.11,141.55,151.11,132.55,147.11,136.55,143.11,132.55,147.11,141.55" style="stroke:#181818;stroke-width:1;"/></g><!--link ????????? to #7--><g class="link" data-entity-1="ent0005" data-entity-2="ent0008" data-link-type="dependency" data-source-line="4" id="lnk9"><path d="M147.11,176.41 C147.11,188.82 147.11,199.54 147.11,210.52" fill="none" id="&#26816;&#26597;&#36134;&#21495;&#26159;&#21542;&#34987;&#38145;&#23450;-to-#7" style="stroke:#181818;stroke-width:1;"/><polygon fill="#181818" points="147.11,216.52,151.11,207.52,147.11,211.52,143.11,207.52,147.11,216.52" style="stroke:#181818;stroke-width:1;"/><text fill="#000000" font-family="sans-serif" font-size="11" lengthAdjust="spacing" textLength="60.838" x="73.4288" y="206.4019">&#36134;&#21495;&#24050;&#38145;&#23450;?</text></g><!--link #7 to ??????????X?????--><g class="link" data-entity-1="ent0008" data-entity-2="ent0010" data-link-type="dependency" data-source-line="5" id="lnk11"><path d="M144.75,238.79 C138.8,261.07 124.6956,313.9425 117.0256,342.7125" fill="none" id="#7-to-&#36820;&#22238;&#65306;&#36134;&#21495;&#24050;&#38145;&#23450;&#65292;&#35831;X&#20998;&#38047;&#21518;&#37325;&#35797;" style="stroke:#181818;stroke-width:1;"/><polygon fill="#181818" points="115.48,348.51,121.6634,340.8441,116.768,343.6787,113.9334,338.7833,115.48,348.51" style="stroke:#181818;stroke-width:1;"/><text fill="#000000" font-family="sans-serif" font-size="11" lengthAdjust="spacing" textLength="10.9999" x="140.11" y="272.1404">&#26159;</text></g><!--link ??????????X????? to end--><g class="link" data-entity-1="ent0010" data-entity-2="ent0012" data-link-type="dependency" data-source-line="6" id="lnk13"><path d="M111.11,383.37 C111.11,400.68 111.11,428.69 111.11,452.87 C111.11,452.87 111.11,452.87 111.11,1141.61 C111.11,1205.02 214.8203,1209.275 250.8203,1208.945" fill="none" id="&#36820;&#22238;&#65306;&#36134;&#21495;&#24050;&#38145;&#23450;&#65292;&#35831;X&#20998;&#38047;&#21518;&#37325;&#35797;-to-end" style="stroke:#181818;stroke-width:1;"/><polygon fill="#181818" points="256.82,1208.89,247.7837,1204.9727,251.8202,1208.9358,247.857,1212.9723,256.82,1208.89" style="stroke:#181818;stroke-width:1;"/></g><!--link #7 to ???????--><g class="link" data-entity-1="ent0008" data-entity-2="ent0014" data-link-type="dependency" data-source-line="8" id="lnk15"><path d="M152.67,236.02 C163.9,248.31 185.5515,272.0117 202.0715,290.0817" fill="none" id="#7-to-&#25163;&#26426;&#21495;&#26684;&#24335;&#26657;&#39564;" style="stroke:#181818;stroke-width:1;"/><polygon fill="#181818" points="206.12,294.51,202.9995,285.1686,202.7463,290.8197,197.0951,290.5665,206.12,294.51" style="stroke:#181818;stroke-width:1;"/><text fill="#000000" font-family="sans-serif" font-size="11" lengthAdjust="spacing" textLength="10.9999" x="188.11" y="272.1404">&#21542;</text></g><!--link ??????? to #16--><g class="link" data-entity-1="ent0014" data-entity-2="ent0017" data-link-type="dependency" data-source-line="11" id="lnk18"><path d="M222.72,329.14 C224.78,349.98 227.719,379.6192 229.469,397.2992" fill="none" id="&#25163;&#26426;&#21495;&#26684;&#24335;&#26657;&#39564;-to-#16" style="stroke:#181818;stroke-width:1;"/><polygon fill="#181818" points="230.06,403.27,233.154,393.9198,229.5675,398.2943,225.1929,394.7078,230.06,403.27" style="stroke:#181818;stroke-width:1;"/><text fill="#000000" font-family="sans-serif" font-size="11" lengthAdjust="spacing" textLength="49.8381" x="167.5521" y="392.2367">&#26684;&#24335;&#21512;&#27861;?</text></g><!--link #16 to ????????????--><g class="link" data-entity-1="ent0017" data-entity-2="ent0019" data-link-type="dependency" data-source-line="12" id="lnk20"><path d="M229.53,425.58 C225.78,448.54 217.3143,500.488 212.7043,528.798" fill="none" id="#16-to-&#36820;&#22238;&#65306;&#35831;&#36755;&#20837;&#27491;&#30830;&#30340;&#25163;&#26426;&#21495;" style="stroke:#181818;stroke-width:1;"/><polygon fill="#181818" points="211.74,534.72,217.1345,526.4799,212.5436,529.785,209.2385,525.1941,211.74,534.72" style="stroke:#181818;stroke-width:1;"/><text fill="#000000" font-family="sans-serif" font-size="11" lengthAdjust="spacing" textLength="10.9999" x="227.11" y="458.0804">&#21542;</text></g><!--link ???????????? to end--><g class="link" data-entity-1="ent0019" data-entity-2="ent0012" data-link-type="dependency" data-source-line="13" id="lnk21"><path d="M205.45,569.21 C201.92,586.44 197.11,614.39 197.11,638.81 C197.11,638.81 197.11,638.81 197.11,1141.61 C197.11,1174.65 232.7938,1193.8595 252.4238,1202.2595" fill="none" id="&#36820;&#22238;&#65306;&#35831;&#36755;&#20837;&#27491;&#30830;&#30340;&#25163;&#26426;&#21495;-to-end" style="stroke:#181818;stroke-width:1;"/><polygon fill="#181818" points="257.94,1204.62,251.2394,1197.4019,253.3432,1202.6529,248.0921,1204.7568,257.94,1204.62" style="stroke:#181818;stroke-width:1;"/></g><!--link #16 to ????????--><g class="link" data-entity-1="ent0017" data-entity-2="ent0022" data-link-type="dependency" data-source-line="15" id="lnk23"><path d="M236.6,421.96 C247.67,434.24 269.0138,457.9124 285.3038,475.9924" fill="none" id="#16-to-&#26597;&#35810;&#36134;&#21495;&#26159;&#21542;&#23384;&#22312;" style="stroke:#181818;stroke-width:1;"/><polygon fill="#181818" points="289.32,480.45,286.2673,471.0862,285.9731,476.7354,280.3239,476.4412,289.32,480.45" style="stroke:#181818;stroke-width:1;"/><text fill="#000000" font-family="sans-serif" font-size="11" lengthAdjust="spacing" textLength="10.9999" x="270.11" y="458.0804">&#26159;</text></g><!--link ???????? to #24--><g class="link" data-entity-1="ent0022" data-entity-2="ent0025" data-link-type="dependency" data-source-line="18" id="lnk26"><path d="M304.59,515.08 C305.21,535.7 306.072,564.7726 306.602,582.6326" fill="none" id="&#26597;&#35810;&#36134;&#21495;&#26159;&#21542;&#23384;&#22312;-to-#24" style="stroke:#181818;stroke-width:1;"/><polygon fill="#181818" points="306.78,588.63,310.5113,579.5153,306.6317,583.6322,302.5148,579.7526,306.78,588.63" style="stroke:#181818;stroke-width:1;"/><text fill="#000000" font-family="sans-serif" font-size="11" lengthAdjust="spacing" textLength="49.8381" x="246.3928" y="578.3914">&#36134;&#21495;&#23384;&#22312;?</text></g><!--link #24 to ??????????--><g class="link" data-entity-1="ent0025" data-entity-2="ent0027" data-link-type="dependency" data-source-line="19" id="lnk28"><path d="M306.17,612.4 C304.08,635.89 299.5813,686.5036 297.0913,714.5136" fill="none" id="#24-to-&#36820;&#22238;&#65306;&#36134;&#21495;&#25110;&#23494;&#30721;&#38169;&#35823;" style="stroke:#181818;stroke-width:1;"/><polygon fill="#181818" points="296.56,720.49,301.3412,711.8795,297.0027,715.5096,293.3726,711.1712,296.56,720.49" style="stroke:#181818;stroke-width:1;"/><text fill="#000000" font-family="sans-serif" font-size="11" lengthAdjust="spacing" textLength="10.9999" x="305.11" y="644.0204">&#21542;</text></g><!--link ?????????? to end--><g class="link" data-entity-1="ent0027" data-entity-2="ent0012" data-link-type="dependency" data-source-line="20" id="lnk29"><path d="M276.15,755.15 C259.91,771.11 239.11,796.96 239.11,824.75 C239.11,824.75 239.11,824.75 239.11,1141.61 C239.11,1164.42 250.0079,1183.3556 258.5179,1195.5056" fill="none" id="&#36820;&#22238;&#65306;&#36134;&#21495;&#25110;&#23494;&#30721;&#38169;&#35823;-to-end" style="stroke:#181818;stroke-width:1;"/><polygon fill="#181818" points="261.96,1200.42,260.0731,1190.7536,259.0916,1196.3246,253.5205,1195.3431,261.96,1200.42" style="stroke:#181818;stroke-width:1;"/></g><!--link #24 to ????--><g class="link" data-entity-1="ent0025" data-entity-2="ent0030" data-link-type="dependency" data-source-line="22" id="lnk31"><path d="M312.3,607.9 C322.77,620.18 342.8394,643.7424 358.2394,661.8224" fill="none" id="#24-to-&#26657;&#39564;&#23494;&#30721;" style="stroke:#181818;stroke-width:1;"/><polygon fill="#181818" points="362.13,666.39,359.3392,656.9448,358.8878,662.5836,353.249,662.1323,362.13,666.39" style="stroke:#181818;stroke-width:1;"/><text fill="#000000" font-family="sans-serif" font-size="11" lengthAdjust="spacing" textLength="10.9999" x="344.11" y="644.0204">&#26159;</text></g><!--link ???? to #32--><g class="link" data-entity-1="ent0030" data-entity-2="ent0033" data-link-type="dependency" data-source-line="25" id="lnk34"><path d="M380.61,701.01 C386.58,722.53 395.2943,753.9788 400.0243,771.0088" fill="none" id="&#26657;&#39564;&#23494;&#30721;-to-#32" style="stroke:#181818;stroke-width:1;"/><polygon fill="#181818" points="401.63,776.79,403.0756,767.0478,400.2919,771.9724,395.3674,769.1887,401.63,776.79" style="stroke:#181818;stroke-width:1;"/><text fill="#000000" font-family="sans-serif" font-size="11" lengthAdjust="spacing" textLength="49.8381" x="334.3693" y="764.3046">&#23494;&#30721;&#27491;&#30830;?</text></g><!--link #32 to ??????--><g class="link" data-entity-1="ent0033" data-entity-2="ent0035" data-link-type="dependency" data-source-line="26" id="lnk36"><path d="M404.11,799.35 C404.11,813.26 404.11,830.65 404.11,846.39" fill="none" id="#32-to-&#32047;&#35745;&#38169;&#35823;&#27425;&#25968;" style="stroke:#181818;stroke-width:1;"/><polygon fill="#181818" points="404.11,852.39,408.11,843.39,404.11,847.39,400.11,843.39,404.11,852.39" style="stroke:#181818;stroke-width:1;"/><text fill="#000000" font-family="sans-serif" font-size="11" lengthAdjust="spacing" textLength="10.9999" x="405.11" y="829.9604">&#21542;</text></g><!--link ?????? to #37--><g class="link" data-entity-1="ent0035" data-entity-2="ent0038" data-link-type="dependency" data-source-line="27" id="lnk39"><path d="M404.11,886.92 C404.11,900.7 404.11,914.12 404.11,926.31" fill="none" id="&#32047;&#35745;&#38169;&#35823;&#27425;&#25968;-to-#37" style="stroke:#181818;stroke-width:1;"/><polygon fill="#181818" points="404.11,932.31,408.11,923.31,404.11,927.31,400.11,923.31,404.11,932.31" style="stroke:#181818;stroke-width:1;"/><text fill="#000000" font-family="sans-serif" font-size="11" lengthAdjust="spacing" textLength="75.2702" x="311.8287" y="922.2012">&#38169;&#35823;&#27425;&#25968;&gt;=5?</text></g><!--link #37 to ????30??--><g class="link" data-entity-1="ent0038" data-entity-2="ent0040" data-link-type="dependency" data-source-line="28" id="lnk41"><path d="M398.65,951.88 C387.01,965.05 363.4118,991.7228 346.4018,1010.9828" fill="none" id="#37-to-&#38145;&#23450;&#36134;&#21495;30&#20998;&#38047;" style="stroke:#181818;stroke-width:1;"/><polygon fill="#181818" points="342.43,1015.48,351.3858,1011.3821,345.7398,1011.7323,345.3896,1006.0863,342.43,1015.48" style="stroke:#181818;stroke-width:1;"/><text fill="#000000" font-family="sans-serif" font-size="11" lengthAdjust="spacing" textLength="10.9999" x="371.11" y="992.8904">&#26159;</text></g><!--link ????30?? to ????????--><g class="link" data-entity-1="ent0040" data-entity-2="ent0042" data-link-type="dependency" data-source-line="29" id="lnk43"><path d="M325.34,1050.1 C324.44,1056.22 323.55,1063.23 323.11,1069.65 C322.07,1084.71 322.07,1088.56 323.11,1103.62 C323.55,1110.04 323.5656,1111.1241 324.4656,1117.2341" fill="none" id="&#38145;&#23450;&#36134;&#21495;30&#20998;&#38047;-to-&#36820;&#22238;&#65306;&#36134;&#21495;&#24050;&#38145;&#23450;" style="stroke:#181818;stroke-width:1;"/><polygon fill="#181818" points="325.34,1123.17,327.9858,1113.6832,324.6114,1118.2234,320.0712,1114.849,325.34,1123.17" style="stroke:#181818;stroke-width:1;"/></g><!--link ???????? to end--><g class="link" data-entity-1="ent0042" data-entity-2="ent0012" data-link-type="dependency" data-source-line="30" id="lnk44"><path d="M313.59,1157.82 C301.38,1171.45 288.4636,1185.8711 279.0836,1196.3411" fill="none" id="&#36820;&#22238;&#65306;&#36134;&#21495;&#24050;&#38145;&#23450;-to-end" style="stroke:#181818;stroke-width:1;"/><polygon fill="#181818" points="275.08,1200.81,284.0647,1196.7758,278.4164,1197.0859,278.1062,1191.4376,275.08,1200.81" style="stroke:#181818;stroke-width:1;"/></g><!--link #37 to ??????????X???--><g class="link" data-entity-1="ent0038" data-entity-2="ent0045" data-link-type="dependency" data-source-line="32" id="lnk46"><path d="M405.01,956.22 C407.1,980.5 411.7379,1034.6119 414.2179,1063.5619" fill="none" id="#37-to-&#36820;&#22238;&#65306;&#23494;&#30721;&#38169;&#35823;&#65292;&#36824;&#21097;X&#27425;&#26426;&#20250;" style="stroke:#181818;stroke-width:1;"/><polygon fill="#181818" points="414.73,1069.54,417.9472,1060.2314,414.3032,1064.5582,409.9764,1060.9143,414.73,1069.54" style="stroke:#181818;stroke-width:1;"/><text fill="#000000" font-family="sans-serif" font-size="11" lengthAdjust="spacing" textLength="10.9999" x="409.11" y="992.8904">&#21542;</text></g><!--link ??????????X??? to end--><g class="link" data-entity-1="ent0045" data-entity-2="ent0012" data-link-type="dependency" data-source-line="33" id="lnk47"><path d="M415.45,1104.03 C413.98,1119.61 409.5,1142.79 396.11,1157.59 C364.03,1193.08 309.9008,1203.473 285.1508,1206.663" fill="none" id="&#36820;&#22238;&#65306;&#23494;&#30721;&#38169;&#35823;&#65292;&#36824;&#21097;X&#27425;&#26426;&#20250;-to-end" style="stroke:#181818;stroke-width:1;"/><polygon fill="#181818" points="279.2,1207.43,288.6375,1210.2467,284.159,1206.7908,287.6148,1202.3123,279.2,1207.43" style="stroke:#181818;stroke-width:1;"/></g><!--link #32 to ??????--><g class="link" data-entity-1="ent0033" data-entity-2="ent0048" data-link-type="dependency" data-source-line="36" id="lnk49"><path d="M411.32,792.1 C429.8,803.27 474.5152,830.2962 505.9152,849.2762" fill="none" id="#32-to-&#28165;&#38500;&#38169;&#35823;&#27425;&#25968;" style="stroke:#181818;stroke-width:1;"/><polygon fill="#181818" points="511.05,852.38,505.417,844.3011,506.771,849.7935,501.2786,851.1475,511.05,852.38" style="stroke:#181818;stroke-width:1;"/><text fill="#000000" font-family="sans-serif" font-size="11" lengthAdjust="spacing" textLength="10.9999" x="476.11" y="829.9604">&#26159;</text></g><!--link ?????? to ??????--><g class="link" data-entity-1="ent0048" data-entity-2="ent0050" data-link-type="dependency" data-source-line="39" id="lnk51"><path d="M541.66,886.92 C544.3,898.93 546.5869,909.3788 549.2269,921.4388" fill="none" id="&#28165;&#38500;&#38169;&#35823;&#27425;&#25968;-to-&#29983;&#25104;&#30331;&#24405;&#20973;&#35777;" style="stroke:#181818;stroke-width:1;"/><polygon fill="#181818" points="550.51,927.3,552.4929,917.6528,549.4408,922.4157,544.678,919.3636,550.51,927.3" style="stroke:#181818;stroke-width:1;"/></g><!--link ?????? to ??????--><g class="link" data-entity-1="ent0050" data-entity-2="ent0052" data-link-type="dependency" data-source-line="40" id="lnk53"><path d="M554.69,962.03 C555.66,988.99 557.3559,1036.5238 558.3159,1063.4138" fill="none" id="&#29983;&#25104;&#30331;&#24405;&#20973;&#35777;-to-&#36820;&#22238;&#30331;&#24405;&#25104;&#21151;" style="stroke:#181818;stroke-width:1;"/><polygon fill="#181818" points="558.53,1069.41,562.2063,1060.273,558.3516,1064.4132,554.2114,1060.5584,558.53,1069.41" style="stroke:#181818;stroke-width:1;"/></g><!--link ?????? to end--><g class="link" data-entity-1="ent0052" data-entity-2="ent0012" data-link-type="dependency" data-source-line="41" id="lnk54"><path d="M532.94,1104.03 C500,1124.06 441.19,1157.82 387.11,1178.59 C348.72,1193.33 306.4869,1201.8469 285.1169,1205.6569" fill="none" id="&#36820;&#22238;&#30331;&#24405;&#25104;&#21151;-to-end" style="stroke:#181818;stroke-width:1;"/><polygon fill="#181818" points="279.21,1206.71,288.7724,1209.0682,284.1324,1205.8324,287.3682,1201.1924,279.21,1206.71" style="stroke:#181818;stroke-width:1;"/></g><!--SRC=[VL9BJi9G59rt5SqR0Gc9YN4eReF4EBD44iD45o16e2X2ewq199Q247_m_11hiCfclA-l8xPWsrkb5N1wF-TtRomH5vF9b4XOjSVKLxln3XyQfoPxEYG2Dhe7JE_nKHzg9gjJKFgyS- -eUHWsYI1aCoB17fZFMDqWulwEb1D43tZJNTboHoOgN5vDhUQVsQbLSSdI81UTCnsKgbCwvLGZk2l64d51sjsJ0YYNseLYvHFM6djYsXPODTOsdBiA4QJSTZQ3Uh01YinUjAWOH9Y9eIR_F8T2ZmswjZ6qcqU_u4iae1il3ze9HmA3EhHk8Ye2ftxZVnM88ry0BThjlACsEAN_y_kUSJp2YILqiuZJ7b4-D921FHXCU_HulCrmBRM-DbiEy-BDKE_g2XwD_CmiF_9in7CZYe6VXM64C_2UOrA7yctQqzKQVrdpKBxt-O3U2axZEkepYCbNQgiwanLyTYWDECq7puuwiE5EmB6E3PVj6m00]--></g></svg>